# xmcd CD database file
#
# Track frame offsets:
#	150
#	10967
#	33195
#
# Disc length: 671 seconds
#
# Revision: 1
# Processed by: cddbd v1.4PL0 Copyright (c) Steve Scherf et al.
# Submitted via: CDex 1.40Release
#
DISCID=17029d03
DTITLE=Jorma Kaukonen - Unreleased
DYEAR=2002
DGENRE=Blues
TTITLE0=Arabella
TTITLE1=Hesitation Blues
TTITLE2=Blues In A
EXTD=YEAR: 2002 ID3G: 0
EXTT0=
EXTT1=
EXTT2=
PLAYORDER=
